<svg xmlns="http://www.w3.org/2000/svg" width="17.758" height="17.821" viewBox="0 0 17.758 17.821">
  <g id="rocket-ship" transform="translate(-0.707)">
    <g id="Group_5938" data-name="Group 5938" transform="translate(0.707 0)">
      <g id="Group_5937" data-name="Group 5937" transform="translate(0 0)">
        <path id="Path_12634" data-name="Path 12634" d="M36.631.362a.337.337,0,0,0-.293-.293A9.2,9.2,0,0,0,28.7,2.694L26.458,4.939l-3.24.418a.337.337,0,0,0-.2.1L19.9,8.577a.337.337,0,0,0,.177.569l2.362.438.464.464-.988.535a.337.337,0,0,0-.078.534l3.747,3.747a.337.337,0,0,0,.534-.078l.535-.988.464.464.438,2.362a.337.337,0,0,0,.569.177l3.124-3.124a.337.337,0,0,0,.1-.2l.418-3.24L34.006,8a9.253,9.253,0,0,0,2.2-3.515A9.254,9.254,0,0,0,36.631.362ZM22.489,8.908,20.828,8.6l2.59-2.59,2.26-.292Zm3.251,5.161L22.631,10.96l.767-.416L26.155,13.3Zm4.95-.786-2.59,2.59-.308-1.661,3.189-3.189Zm2.84-5.761-6.1,6.1L23.078,9.272l6.1-6.1a8.576,8.576,0,0,1,3.157-2,4.031,4.031,0,0,0,3.192,3.192A8.578,8.578,0,0,1,33.529,7.521Zm2.2-3.8A3.36,3.36,0,0,1,32.983.97,8.594,8.594,0,0,1,35.991.709,8.593,8.593,0,0,1,35.73,3.717Z" transform="translate(-18.942 0)"/>
        <path id="Path_12635" data-name="Path 12635" d="M208.618,97.736a2.043,2.043,0,0,0,2.89,2.89h0a2.043,2.043,0,0,0-2.89-2.89Zm2.413,2.413a1.369,1.369,0,1,1,0-1.937A1.371,1.371,0,0,1,211.031,100.149Z" transform="translate(-198.71 -92.776)"/>
        <path id="Path_12636" data-name="Path 12636" d="M24.678,297.067a.337.337,0,0,0-.476,0l-2.89,2.89a.337.337,0,1,0,.476.476l2.89-2.89A.337.337,0,0,0,24.678,297.067Z" transform="translate(-20.292 -283.632)"/>
        <path id="Path_12637" data-name="Path 12637" d="M78.476,317.573l-1.3,1.3a.337.337,0,0,0,.476.476l1.3-1.3a.337.337,0,1,0-.476-.476Z" transform="translate(-73.646 -303.217)"/>
        <path id="Path_12638" data-name="Path 12638" d="M61.968,361.919a.337.337,0,1,0,.311.208A.34.34,0,0,0,61.968,361.919Z" transform="translate(-58.895 -345.665)"/>
        <path id="Path_12639" data-name="Path 12639" d="M76,366.425c.009.02-.008-.02,0,0Z" transform="translate(-72.612 -349.963)"/>
        <path id="Path_12640" data-name="Path 12640" d="M42,377.928l-.179.179a.337.337,0,0,0,.476.476l.179-.179a.337.337,0,0,0-.476-.476Z" transform="translate(-39.878 -360.861)"/>
        <path id="Path_12641" data-name="Path 12641" d="M2.584,311.916a.337.337,0,0,0-.476,0l-1.3,1.3a.337.337,0,0,0,.476.476l1.3-1.3A.337.337,0,0,0,2.584,311.916Z" transform="translate(-0.707 -297.814)"/>
        <path id="Path_12642" data-name="Path 12642" d="M45.6,297.044a.337.337,0,1,0-.363-.141s0-.007,0,0,0,.005,0,0A.341.341,0,0,0,45.6,297.044Z" transform="translate(-43.182 -283.071)"/>
        <path id="Path_12643" data-name="Path 12643" d="M61.638,277.216l.179-.179a.337.337,0,1,0-.476-.476l-.179.179a.337.337,0,1,0,.476.476Z" transform="translate(-58.353 -264.046)"/>
      </g>
    </g>
  </g>
</svg>
