<svg xmlns="http://www.w3.org/2000/svg" width="17.399" height="18.792" viewBox="0 0 17.399 18.792">
    <path d="M8.7 2.784a5.915 5.915 0 0 0-2.088 11.449V17.4a.348.348 0 0 0 .348.348h.348v.7a.348.348 0 0 0 .348.348h2.088a.348.348 0 0 0 .348-.348v-.7h.348a.348.348 0 0 0 .344-.348v-3.167A5.915 5.915 0 0 0 8.7 2.784zm1.044 14.268a.348.348 0 0 0-.348.348v.7H8.004v-.7a.348.348 0 0 0-.348-.348h-.348v-1.74h2.784v1.74zm.587-3.4a.348.348 0 0 0-.239.331v.629H7.308v-.628a.348.348 0 0 0-.239-.331 5.22 5.22 0 1 1 3.263 0z" data-name="Path 12526"/>
    <path d="M8.7 2.088a.348.348 0 0 0 .352-.348V.348a.35.35 0 1 0-.7 0V1.74a.348.348 0 0 0 .348.348z" data-name="Path 12527"/>
    <path d="M17.051 8.352h-1.392a.35.35 0 0 0 0 .7h1.392a.35.35 0 1 0 0-.7z" data-name="Path 12528"/>
    <path d="M1.74 8.352H.348a.35.35 0 1 0 0 .7H1.74a.35.35 0 1 0 0-.7z" data-name="Path 12529"/>
    <path d="M14.359 2.548l-.984.984a.348.348 0 1 0 .492.492l.984-.984a.348.348 0 1 0-.492-.492z" data-name="Path 12530"/>
    <path d="M3.532 13.375l-.984.984a.348.348 0 1 0 .492.492l.984-.984a.348.348 0 1 0-.492-.492z" data-name="Path 12531"/>
    <path d="M13.867 13.375a.348.348 0 1 0-.492.492l.984.984a.348.348 0 1 0 .492-.492z" data-name="Path 12532"/>
    <path d="M3.532 4.024a.348.348 0 0 0 .492-.492l-.984-.984a.348.348 0 0 0-.492.492z" data-name="Path 12533"/>
    <path d="M8.7 4.524A4.181 4.181 0 0 0 4.524 8.7a.35.35 0 0 0 .7 0 3.484 3.484 0 0 1 3.48-3.48.35.35 0 0 0 0-.7z" data-name="Path 12534"/>
</svg>
